<?xml version="1.0" encoding="UTF-8"?>
<svg version="1.1" xmlns="http://www.w3.org/2000/svg" width="512" height="512">
<path d="M0 0 C1.12420823 -0.00384115 2.24841646 -0.00768229 3.40669161 -0.01163983 C4.63682732 -0.01077335 5.86696303 -0.00990687 7.13437557 -0.00901413 C9.10043936 -0.01347081 9.10043936 -0.01347081 11.10622162 -0.01801753 C14.7430682 -0.02607688 18.37989504 -0.02787651 22.0167495 -0.028615 C25.93990521 -0.03046745 29.86305072 -0.03801583 33.78620052 -0.04475021 C42.36494756 -0.0583273 50.94368992 -0.0643575 59.52244592 -0.06876087 C64.88137076 -0.07152479 70.24029379 -0.07576247 75.59921741 -0.08026505 C90.4425298 -0.09245774 105.28584074 -0.1027565 120.12915802 -0.10614014 C121.55397273 -0.10646949 121.55397273 -0.10646949 123.00757157 -0.10680549 C124.43576243 -0.10713291 124.43576243 -0.10713291 125.89280564 -0.10746694 C127.82211944 -0.1079104 129.75143323 -0.10835696 131.68074703 -0.10880661 C132.63774976 -0.10902804 133.59475248 -0.10924947 134.58075529 -0.10947761 C150.07908282 -0.11342354 165.57736328 -0.1308713 181.07567263 -0.15416613 C196.99550544 -0.17790092 212.91531466 -0.19034298 228.83516544 -0.19150805 C237.77029162 -0.19242371 246.70535648 -0.19814824 255.64046574 -0.21632767 C263.25090285 -0.23175749 270.86125971 -0.23683221 278.4717095 -0.22858956 C282.3516769 -0.22469302 286.23148282 -0.22556367 290.11143017 -0.23964691 C293.67031584 -0.25244608 297.22891969 -0.25113613 300.78780531 -0.2390562 C302.6705746 -0.23619432 304.55334904 -0.24798935 306.43607908 -0.26047826 C322.51520633 -0.16773215 335.43424015 4.61305213 347.16683102 15.71345901 C355.11206763 24.35687107 360.47826999 36.40393055 360.53665829 48.20088577 C360.54739124 49.69756287 360.54739124 49.69756287 360.55834103 51.22447586 C360.56102993 52.30816452 360.56371883 53.39185318 360.56648922 54.50838089 C360.57306042 55.65865768 360.57963161 56.80893448 360.58640194 57.99406815 C360.60610826 61.80027206 360.61779337 65.6064365 360.62776852 69.41267776 C360.63184404 70.71577393 360.63591957 72.01887009 360.6401186 73.36145401 C360.65915839 79.55137955 360.67338843 85.7412933 360.68173057 91.93124247 C360.69147989 99.04564706 360.71774362 106.15973862 360.75823146 113.27403307 C360.78854152 118.79191598 360.80321368 124.30970995 360.80651158 129.82767439 C360.80884638 133.11402735 360.81961963 136.3999721 360.84297276 139.68625259 C360.86747889 143.36419004 360.86637741 147.04132327 360.85945797 150.71931839 C360.87867306 152.32056061 360.87867306 152.32056061 360.89827633 153.95415115 C360.79773144 168.72848989 355.22691668 180.90607718 345.45198727 191.81892776 C341.53573953 195.53468501 337.33870351 198.10476361 332.57698727 200.56892776 C331.94993893 200.89916946 331.32289059 201.22941116 330.67684078 201.56966019 C320.81784264 206.33033653 309.84817814 206.4260556 299.10652828 206.38539505 C297.18049566 206.39007502 297.18049566 206.39007502 295.21555328 206.39484954 C291.68570232 206.4031294 288.15596074 206.39910361 284.6261096 206.3928771 C280.80600718 206.38832546 276.98592271 206.39534974 273.16582394 206.40083694 C265.69573278 206.4097038 258.22568195 206.40782104 250.75558925 206.40201166 C244.68141364 206.39748449 238.60724928 206.39688683 232.53307247 206.3990593 C231.23351316 206.39951899 231.23351316 206.39951899 229.90770012 206.39998798 C228.1473693 206.40062747 226.38703849 206.4012759 224.62670767 206.40193316 C208.14199882 206.40762852 191.65731226 206.40109104 175.17260706 206.39033243 C161.04534504 206.38139764 146.91811589 206.38294991 132.79085445 206.39216995 C116.3628485 206.40288662 99.93486206 206.40707928 83.5068531 206.40094543 C81.75320276 206.40030836 79.99955241 206.39967962 78.24590206 206.3990593 C77.38319984 206.39875074 76.52049761 206.39844219 75.63165289 206.39812429 C69.56875867 206.39640154 63.50587688 206.39930338 57.44298458 206.4040184 C50.04865096 206.40964277 42.65435978 206.40807816 35.26003098 206.39745691 C31.49144135 206.3922211 27.72292233 206.39010759 23.95433331 206.39675522 C19.86031018 206.40386738 15.76646347 206.3953429 11.67244625 206.38539505 C10.49382802 206.38985649 9.31520979 206.39431794 8.10087585 206.39891458 C-2.31077908 206.35000618 -12.39647772 205.5237057 -21.73551273 200.63142776 C-22.41218998 200.28176956 -23.08886723 199.93211136 -23.78604984 199.57185745 C-34.80605603 193.58412362 -43.32951694 183.77265392 -47.39637184 171.82217598 C-49.47058607 164.79325343 -50.04552293 158.3774126 -50.01456547 151.0733223 C-50.02142872 149.92216934 -50.02829197 148.77101639 -50.0353632 147.58498001 C-50.05353914 143.81127163 -50.04980648 140.03798267 -50.04410648 136.26424026 C-50.04867282 133.62067405 -50.05397973 130.97710901 -50.05999088 128.33354568 C-50.06998649 122.80438155 -50.06675607 117.27533463 -50.05655766 111.74617386 C-50.04508604 105.38686691 -50.05914831 99.02798219 -50.08595413 92.66873085 C-50.10822554 87.1761771 -50.11472285 81.68375476 -50.10887772 76.19115913 C-50.10553355 72.92505849 -50.1095011 69.65928485 -50.12512875 66.39321136 C-50.20755782 46.3427774 -49.19534072 29.63256554 -34.90348148 14.26814651 C-25.47494166 5.48209663 -12.92604824 0.01661478 0 0 Z " fill="#f4cb16" transform="translate(100.61051273345947,229.86857223510742)"/>
<path d="M0 0 C1.629007 -0.00807831 1.629007 -0.00807831 3.29092324 -0.01631981 C6.91884743 -0.03059233 10.54640639 -0.02349716 14.17434692 -0.01637268 C16.77996107 -0.02207661 19.38557271 -0.02904096 21.99118042 -0.03717041 C28.32750643 -0.05433718 34.66373318 -0.0552028 41.0000764 -0.04995751 C46.15236548 -0.0459104 51.3046253 -0.04736578 56.45691299 -0.05270576 C57.19118794 -0.05345419 57.92546288 -0.05420261 58.68198857 -0.05497371 C60.173841 -0.05650524 61.66569341 -0.05804359 63.15754582 -0.05958868 C77.13754479 -0.07330619 91.11748775 -0.06788144 105.09748544 -0.05640347 C117.87459972 -0.04647318 130.65156915 -0.05940951 143.42866109 -0.08333766 C156.56198183 -0.10774678 169.69523515 -0.117332 182.82857811 -0.11068493 C190.1964191 -0.10719656 197.56414872 -0.10939937 204.9319725 -0.12693596 C211.86119536 -0.14322461 218.7901375 -0.13844807 225.71935272 -0.11963081 C228.25977399 -0.11594518 230.80021574 -0.11905259 233.34061813 -0.1295166 C236.81398524 -0.14272919 240.2864375 -0.13117514 243.75976562 -0.11352539 C244.7601725 -0.1231304 245.76057937 -0.1327354 246.79130161 -0.14263147 C255.1983895 -0.05500074 262.51587806 1.87430713 268.88186646 7.57518005 C274.7579929 14.13199254 276.71680276 20.69768239 276.39358521 29.45799255 C275.46029181 36.52839707 272.14445557 42.47346438 267.00686646 47.38768005 C259.95826637 51.95491942 253.90527963 53.11366363 245.62136841 53.02259827 C243.96529682 53.0342982 243.96529682 53.0342982 242.27576923 53.04623449 C238.59854984 53.06608201 234.92237367 53.05041711 231.24514771 53.03465271 C228.59980271 53.04143204 225.95452812 53.05015689 223.3092041 53.061203 C216.88351612 53.08337471 210.45812103 53.07866153 204.03242183 53.0641398 C198.80770268 53.05282352 193.5830653 53.05132695 188.3583374 53.05675888 C187.613232 53.05752505 186.86812659 53.05829121 186.10044223 53.05908059 C184.58652486 53.06067931 183.07260751 53.06230037 181.55869019 53.06394355 C167.38025116 53.07818327 153.20197406 53.06183632 139.0235616 53.03494172 C126.87175664 53.01260451 114.72019054 53.01648514 102.56838989 53.03953552 C88.43886861 53.06632504 74.30948908 53.07681014 60.17994595 53.0614742 C58.67176249 53.05988155 57.16357901 53.05830969 55.65539551 53.05675888 C54.54246635 53.05560181 54.54246635 53.05560181 53.40705377 53.05442137 C48.19180561 53.05011381 42.97664775 53.0573705 37.76141357 53.06915665 C31.40112946 53.08321531 25.04115366 53.07931151 18.68090463 53.05275293 C15.43896843 53.03965933 12.19764831 53.03710034 8.95569992 53.05099869 C5.43407957 53.06470206 1.91389393 53.04747741 -1.6076355 53.02259827 C-2.62224193 53.03375188 -3.63684835 53.04490548 -4.68220043 53.05639708 C-12.44214422 52.95036745 -19.02581405 50.93043123 -24.90715504 45.67849028 C-30.21130449 40.09639837 -32.12358973 34.10777784 -32.49313354 26.51268005 C-32.24241858 18.22863968 -29.18434769 12.11048649 -23.18063354 6.45018005 C-16.30417534 0.48276323 -8.6790944 -0.05190904 0 0 Z " fill="#f4cb16" transform="translate(133.99313354492188,152.61231994628906)"/>
<path d="M0 0 C0.65058484 -0.00297112 1.30116969 -0.00594224 1.97146922 -0.0090034 C4.14373782 -0.01765022 6.31595105 -0.01919524 8.48823547 -0.02069092 C10.04908362 -0.02532199 11.60993065 -0.03034704 13.17077637 -0.03573608 C17.40655341 -0.04883545 21.64231462 -0.05530039 25.87810874 -0.05974674 C28.52738198 -0.06268185 31.17665094 -0.06678751 33.82592201 -0.07125092 C42.12329039 -0.08492024 50.42064892 -0.09458929 58.71802777 -0.09845281 C68.28027561 -0.10293032 77.84238027 -0.12046634 87.40458459 -0.1494534 C94.80605728 -0.17110763 102.20748981 -0.1811591 109.60899383 -0.18249393 C114.02471128 -0.1835394 118.44029405 -0.18939215 122.85597801 -0.20731354 C127.01337626 -0.22385873 131.17053951 -0.22591864 135.32795906 -0.21717453 C136.84763598 -0.21640756 138.36732586 -0.22070173 139.88697052 -0.23063278 C151.17430338 -0.30002743 161.19175553 0.05840461 169.70039368 8.17169189 C174.85527621 14.17183231 176.73056105 20.9223893 176.60273743 28.70684814 C175.95025396 36.23457409 173.02866089 42.1457322 167.39179993 47.14044189 C159.2021689 52.98133459 150.64396645 52.85477388 140.99336243 52.78741455 C139.35295139 52.79420081 137.71254797 52.80310957 136.07215881 52.81396484 C131.64227658 52.8366452 127.21298039 52.82796882 122.78308868 52.81206942 C118.13262429 52.7993517 113.48220784 52.81116676 108.83174133 52.81900024 C101.02419589 52.82807978 93.21688745 52.81615354 85.40937805 52.79229736 C76.40124072 52.76508932 67.39366936 52.77390468 58.38554573 52.80142939 C50.63148744 52.82416792 42.87759887 52.82729741 35.12351799 52.81423604 C30.50103869 52.80646755 25.87882484 52.80532793 21.25636292 52.82191849 C16.90910285 52.83643331 12.56256773 52.82621467 8.21538544 52.7974472 C6.62638295 52.79087362 5.03731875 52.79266978 3.44834137 52.80376053 C-6.42674703 52.86629693 -14.81123363 52.27701786 -22.50263977 45.46181679 C-27.57774664 40.29358356 -29.68453666 33.78347508 -29.98320007 26.64044189 C-29.636745 18.67197516 -27.0398626 12.66899811 -21.57304382 6.86700439 C-15.20631904 1.27238739 -8.28412612 0.02120152 0 0 Z " fill="#f4cb16" transform="translate(182.6082000732422,75.85955810546875)"/>
</svg>
