<?xml version="1.0" encoding="UTF-8"?>
<svg version="1.1" xmlns="http://www.w3.org/2000/svg" width="512" height="512">
<path d="M0 0 C1.23327026 -0.00671722 2.46654053 -0.01343445 3.73718262 -0.02035522 C7.10936763 -0.03606977 10.48130629 -0.04270865 13.85351086 -0.0439868 C15.96458926 -0.04541196 18.07564213 -0.04968852 20.18671417 -0.05498123 C27.56394581 -0.07346778 34.94110534 -0.08165382 42.31835938 -0.08007812 C49.17462671 -0.07887798 56.03057862 -0.09995861 62.8867662 -0.13156545 C68.78934501 -0.15779793 74.69182127 -0.16844247 80.59445786 -0.16716731 C84.11260218 -0.16665959 87.63046614 -0.17223573 91.14855194 -0.19352341 C95.07832419 -0.21665412 99.00767097 -0.20734233 102.9375 -0.1953125 C104.0890155 -0.20655151 105.24053101 -0.21779053 106.42694092 -0.22937012 C115.95621896 -0.15549356 124.09860166 1.95843015 131.19628906 8.58740234 C138.81968786 17.06648876 140.02672282 25.48797326 140.01806641 36.56298828 C140.02478363 37.79625854 140.03150085 39.02952881 140.03842163 40.3001709 C140.05413618 43.67235591 140.06077506 47.04429457 140.0620532 50.41649914 C140.06347837 52.52757754 140.06775493 54.63863041 140.07304764 56.74970245 C140.09153418 64.12693409 140.09972022 71.50409362 140.09814453 78.88134766 C140.09694439 85.73761499 140.11802501 92.5935669 140.14963186 99.44975448 C140.17586434 105.35233329 140.18650888 111.25480955 140.18523371 117.15744615 C140.184726 120.67559046 140.19030213 124.19345442 140.21158981 127.71154022 C140.23472052 131.64131247 140.22540873 135.57065925 140.21337891 139.50048828 C140.22461792 140.65200378 140.23585693 141.80351929 140.24743652 142.9899292 C140.17355996 152.51920724 138.05963625 160.66158995 131.43066406 167.75927734 C122.95157765 175.38267614 114.53009315 176.5897111 103.45507812 176.58105469 C102.22180786 176.58777191 100.9885376 176.59448914 99.71789551 176.60140991 C96.34571049 176.61712446 92.97377184 176.62376334 89.60156727 176.62504148 C87.49048886 176.62646665 85.37943599 176.63074321 83.26836395 176.63603592 C75.89113231 176.65452246 68.51397278 176.6627085 61.13671875 176.66113281 C54.28045141 176.65993267 47.42449951 176.6810133 40.56831193 176.71262014 C34.66573311 176.73885262 28.76325686 176.74949716 22.86062026 176.74822199 C19.34247594 176.74771428 15.82461198 176.75329042 12.30652618 176.77457809 C8.37675393 176.7977088 4.44740715 176.78839702 0.51757812 176.77636719 C-0.63393738 176.7876062 -1.78545288 176.79884521 -2.97186279 176.8104248 C-12.50114083 176.73654824 -20.64352354 174.62262454 -27.74121094 167.99365234 C-35.36460973 159.51456593 -36.57164469 151.09308143 -36.56298828 140.01806641 C-36.56970551 138.78479614 -36.57642273 137.55152588 -36.58334351 136.28088379 C-36.59905805 132.90869877 -36.60569693 129.53676012 -36.60697508 126.16455555 C-36.60840024 124.05347715 -36.6126768 121.94242428 -36.61796951 119.83135223 C-36.63645606 112.4541206 -36.6446421 105.07696106 -36.64306641 97.69970703 C-36.64186626 90.84343969 -36.66294689 83.98748779 -36.69455373 77.13130021 C-36.72078622 71.2287214 -36.73143075 65.32624514 -36.73015559 59.42360854 C-36.72964788 55.90546422 -36.73522401 52.38760026 -36.75651169 48.86951447 C-36.7796424 44.93974221 -36.77033061 41.01039543 -36.75830078 37.08056641 C-36.76953979 35.9290509 -36.78077881 34.7775354 -36.7923584 33.59112549 C-36.71848184 24.06184745 -34.60455813 15.91946474 -27.97558594 8.82177734 C-19.49649952 1.19837855 -11.07501502 -0.00865641 0 0 Z " fill="#ffffff" transform="translate(92.2724609375,279.70947265625)"/>
<path d="M0 0 C1.23327026 -0.00671722 2.46654053 -0.01343445 3.73718262 -0.02035522 C7.10936763 -0.03606977 10.48130629 -0.04270865 13.85351086 -0.0439868 C15.96458926 -0.04541196 18.07564213 -0.04968852 20.18671417 -0.05498123 C27.56394581 -0.07346778 34.94110534 -0.08165382 42.31835938 -0.08007812 C49.17462671 -0.07887798 56.03057862 -0.09995861 62.8867662 -0.13156545 C68.78934501 -0.15779793 74.69182127 -0.16844247 80.59445786 -0.16716731 C84.11260218 -0.16665959 87.63046614 -0.17223573 91.14855194 -0.19352341 C95.07832419 -0.21665412 99.00767097 -0.20734233 102.9375 -0.1953125 C104.0890155 -0.20655151 105.24053101 -0.21779053 106.42694092 -0.22937012 C115.95621896 -0.15549356 124.09860166 1.95843015 131.19628906 8.58740234 C138.81968786 17.06648876 140.02672282 25.48797326 140.01806641 36.56298828 C140.02478363 37.79625854 140.03150085 39.02952881 140.03842163 40.3001709 C140.05413618 43.67235591 140.06077506 47.04429457 140.0620532 50.41649914 C140.06347837 52.52757754 140.06775493 54.63863041 140.07304764 56.74970245 C140.09153418 64.12693409 140.09972022 71.50409362 140.09814453 78.88134766 C140.09694439 85.73761499 140.11802501 92.5935669 140.14963186 99.44975448 C140.17586434 105.35233329 140.18650888 111.25480955 140.18523371 117.15744615 C140.184726 120.67559046 140.19030213 124.19345442 140.21158981 127.71154022 C140.23472052 131.64131247 140.22540873 135.57065925 140.21337891 139.50048828 C140.22461792 140.65200378 140.23585693 141.80351929 140.24743652 142.9899292 C140.17355996 152.51920724 138.05963625 160.66158995 131.43066406 167.75927734 C122.95157765 175.38267614 114.53009315 176.5897111 103.45507812 176.58105469 C102.22180786 176.58777191 100.9885376 176.59448914 99.71789551 176.60140991 C96.34571049 176.61712446 92.97377184 176.62376334 89.60156727 176.62504148 C87.49048886 176.62646665 85.37943599 176.63074321 83.26836395 176.63603592 C75.89113231 176.65452246 68.51397278 176.6627085 61.13671875 176.66113281 C54.28045141 176.65993267 47.42449951 176.6810133 40.56831193 176.71262014 C34.66573311 176.73885262 28.76325686 176.74949716 22.86062026 176.74822199 C19.34247594 176.74771428 15.82461198 176.75329042 12.30652618 176.77457809 C8.37675393 176.7977088 4.44740715 176.78839702 0.51757812 176.77636719 C-0.63393738 176.7876062 -1.78545288 176.79884521 -2.97186279 176.8104248 C-12.50114083 176.73654824 -20.64352354 174.62262454 -27.74121094 167.99365234 C-35.36460973 159.51456593 -36.57164469 151.09308143 -36.56298828 140.01806641 C-36.56970551 138.78479614 -36.57642273 137.55152588 -36.58334351 136.28088379 C-36.59905805 132.90869877 -36.60569693 129.53676012 -36.60697508 126.16455555 C-36.60840024 124.05347715 -36.6126768 121.94242428 -36.61796951 119.83135223 C-36.63645606 112.4541206 -36.6446421 105.07696106 -36.64306641 97.69970703 C-36.64186626 90.84343969 -36.66294689 83.98748779 -36.69455373 77.13130021 C-36.72078622 71.2287214 -36.73143075 65.32624514 -36.73015559 59.42360854 C-36.72964788 55.90546422 -36.73522401 52.38760026 -36.75651169 48.86951447 C-36.7796424 44.93974221 -36.77033061 41.01039543 -36.75830078 37.08056641 C-36.76953979 35.9290509 -36.78077881 34.7775354 -36.7923584 33.59112549 C-36.71848184 24.06184745 -34.60455813 15.91946474 -27.97558594 8.82177734 C-19.49649952 1.19837855 -11.07501502 -0.00865641 0 0 Z " fill="#ffffff" transform="translate(316.2724609375,55.70947265625)"/>
<path d="M0 0 C1.23327026 -0.00671722 2.46654053 -0.01343445 3.73718262 -0.02035522 C7.10936763 -0.03606977 10.48130629 -0.04270865 13.85351086 -0.0439868 C15.96458926 -0.04541196 18.07564213 -0.04968852 20.18671417 -0.05498123 C27.56394581 -0.07346778 34.94110534 -0.08165382 42.31835938 -0.08007812 C49.17462671 -0.07887798 56.03057862 -0.09995861 62.8867662 -0.13156545 C68.78934501 -0.15779793 74.69182127 -0.16844247 80.59445786 -0.16716731 C84.11260218 -0.16665959 87.63046614 -0.17223573 91.14855194 -0.19352341 C95.07832419 -0.21665412 99.00767097 -0.20734233 102.9375 -0.1953125 C104.0890155 -0.20655151 105.24053101 -0.21779053 106.42694092 -0.22937012 C115.95621896 -0.15549356 124.09860166 1.95843015 131.19628906 8.58740234 C138.81968786 17.06648876 140.02672282 25.48797326 140.01806641 36.56298828 C140.02478363 37.79625854 140.03150085 39.02952881 140.03842163 40.3001709 C140.05413618 43.67235591 140.06077506 47.04429457 140.0620532 50.41649914 C140.06347837 52.52757754 140.06775493 54.63863041 140.07304764 56.74970245 C140.09153418 64.12693409 140.09972022 71.50409362 140.09814453 78.88134766 C140.09694439 85.73761499 140.11802501 92.5935669 140.14963186 99.44975448 C140.17586434 105.35233329 140.18650888 111.25480955 140.18523371 117.15744615 C140.184726 120.67559046 140.19030213 124.19345442 140.21158981 127.71154022 C140.23472052 131.64131247 140.22540873 135.57065925 140.21337891 139.50048828 C140.22461792 140.65200378 140.23585693 141.80351929 140.24743652 142.9899292 C140.17355996 152.51920724 138.05963625 160.66158995 131.43066406 167.75927734 C122.95157765 175.38267614 114.53009315 176.5897111 103.45507812 176.58105469 C102.22180786 176.58777191 100.9885376 176.59448914 99.71789551 176.60140991 C96.34571049 176.61712446 92.97377184 176.62376334 89.60156727 176.62504148 C87.49048886 176.62646665 85.37943599 176.63074321 83.26836395 176.63603592 C75.89113231 176.65452246 68.51397278 176.6627085 61.13671875 176.66113281 C54.28045141 176.65993267 47.42449951 176.6810133 40.56831193 176.71262014 C34.66573311 176.73885262 28.76325686 176.74949716 22.86062026 176.74822199 C19.34247594 176.74771428 15.82461198 176.75329042 12.30652618 176.77457809 C8.37675393 176.7977088 4.44740715 176.78839702 0.51757812 176.77636719 C-0.63393738 176.7876062 -1.78545288 176.79884521 -2.97186279 176.8104248 C-12.50114083 176.73654824 -20.64352354 174.62262454 -27.74121094 167.99365234 C-35.36460973 159.51456593 -36.57164469 151.09308143 -36.56298828 140.01806641 C-36.56970551 138.78479614 -36.57642273 137.55152588 -36.58334351 136.28088379 C-36.59905805 132.90869877 -36.60569693 129.53676012 -36.60697508 126.16455555 C-36.60840024 124.05347715 -36.6126768 121.94242428 -36.61796951 119.83135223 C-36.63645606 112.4541206 -36.6446421 105.07696106 -36.64306641 97.69970703 C-36.64186626 90.84343969 -36.66294689 83.98748779 -36.69455373 77.13130021 C-36.72078622 71.2287214 -36.73143075 65.32624514 -36.73015559 59.42360854 C-36.72964788 55.90546422 -36.73522401 52.38760026 -36.75651169 48.86951447 C-36.7796424 44.93974221 -36.77033061 41.01039543 -36.75830078 37.08056641 C-36.76953979 35.9290509 -36.78077881 34.7775354 -36.7923584 33.59112549 C-36.71848184 24.06184745 -34.60455813 15.91946474 -27.97558594 8.82177734 C-19.49649952 1.19837855 -11.07501502 -0.00865641 0 0 Z " fill="#ffffff" transform="translate(92.2724609375,55.70947265625)"/>
<path d="M0 0 C0.85207031 0.48339844 1.70414063 0.96679688 2.58203125 1.46484375 C22.60759293 13.91316588 35.36357223 34.4224447 41 57 C44.4637853 72.03161172 43.5381977 90.62233367 38 105 C37.61457031 106.05832031 37.22914063 107.11664063 36.83203125 108.20703125 C28.07414524 130.73945643 11.23638586 147.9371987 -10.8125 157.75 C-12.86221669 158.53426255 -14.92577061 159.28307693 -17 160 C-18.12019531 160.39316406 -19.24039063 160.78632813 -20.39453125 161.19140625 C-42.13619427 167.72528823 -66.39278978 165.59068293 -86.46191406 155.13256836 C-108.5666505 143.08022397 -123.84051442 124.84103006 -131.4375 100.875 C-136.39081142 83.77163771 -135.87913696 63.78648316 -130 47 C-129.649375 45.96359375 -129.29875 44.9271875 -128.9375 43.859375 C-120.13632145 20.51180412 -102.39066308 3.98573592 -79.98681641 -6.15869141 C-53.56909422 -17.34515868 -24.44358358 -13.8676456 0 0 Z " fill="#ffffff" transform="translate(414,292)"/>
</svg>
